<svg width="267" height="28" viewBox="0 0 267 28" fill="none" xmlns="http://www.w3.org/2000/svg">
<path d="M252.469 0C244.895 0 238.755 6.17754 238.755 13.797C238.755 20.6824 243.769 26.3894 250.327 27.4284V17.7861H246.843V13.797H250.327V10.7572C250.327 7.29659 252.374 5.38827 255.506 5.38827C257.006 5.38827 258.578 5.65734 258.578 5.65734V9.05036H256.844C255.144 9.05036 254.611 10.1156 254.611 11.207V13.7942H258.412L257.804 17.7834H254.611V27.4257C261.169 26.3922 266.183 20.6838 266.183 13.797C266.183 6.17754 260.043 0 252.469 0V0Z" fill="white"/>
<path d="M187.327 14.1505C187.327 12.4793 185.975 11.152 184.328 11.152C183.55 11.151 182.802 11.4504 182.239 11.9877C180.175 10.5129 177.348 9.55462 174.203 9.43174L175.579 2.99242L180.052 3.95072C180.101 5.08136 181.035 5.99086 182.19 5.99086C183.37 5.99086 184.328 5.03256 184.328 3.85231C184.328 2.67271 183.37 1.71425 182.19 1.71425C181.355 1.71425 180.617 2.2058 180.273 2.91865L175.284 1.86178C175.137 1.83698 174.989 1.86178 174.891 1.93554C174.768 2.00931 174.694 2.13204 174.67 2.27957L173.146 9.45606C169.951 9.55462 167.075 10.5129 164.986 12.0124C164.423 11.475 163.675 11.1757 162.897 11.1768C161.226 11.1768 159.898 12.5283 159.898 14.1753C159.898 15.404 160.636 16.4361 161.668 16.9034C161.618 17.2039 161.593 17.5081 161.594 17.8128C161.594 22.4329 166.977 26.1937 173.613 26.1937C180.249 26.1937 185.631 22.4577 185.631 17.8128C185.631 17.5082 185.607 17.2041 185.558 16.9034C186.59 16.4361 187.327 15.3792 187.327 14.1505V14.1505ZM166.731 16.2885C166.731 15.1089 167.689 14.1505 168.869 14.1505C170.049 14.1505 171.008 15.1088 171.008 16.2885C171.008 17.4683 170.049 18.4271 168.869 18.4271C167.689 18.4512 166.731 17.4683 166.731 16.2885ZM178.7 21.966C177.226 23.4409 174.424 23.5393 173.613 23.5393C172.777 23.5393 169.975 23.416 168.525 21.966C168.304 21.7449 168.304 21.4007 168.525 21.1796C168.746 20.9588 169.09 20.9588 169.312 21.1796C170.246 22.1137 172.212 22.4329 173.613 22.4329C175.014 22.4329 177.004 22.1136 177.914 21.1796C178.135 20.9588 178.479 20.9588 178.7 21.1796C178.897 21.4007 178.897 21.7449 178.7 21.966ZM178.307 18.4514C177.127 18.4514 176.169 17.4931 176.169 16.3133C176.169 15.1336 177.127 14.1753 178.307 14.1753C179.487 14.1753 180.445 15.1336 180.445 16.3133C180.445 17.4681 179.487 18.4514 178.307 18.4514Z" fill="white"/>
<path d="M93.5297 8.0987L93.5926 9.13676L92.5434 9.00965C88.7243 8.5224 85.3878 6.86997 82.5549 4.09474L81.1699 2.71772L80.8132 3.7346C80.0578 6.00139 80.5404 8.39529 82.1142 10.0053C82.9536 10.8951 82.7647 11.0222 81.3168 10.4926C80.8132 10.3231 80.3725 10.196 80.3305 10.2596C80.1837 10.4079 80.6873 12.3357 81.086 13.0983C81.6316 14.1576 82.7437 15.1957 83.9608 15.81L84.9891 16.2973L83.772 16.3185C82.5968 16.3185 82.5549 16.3396 82.6808 16.7845C83.1005 18.1615 84.7582 19.6233 86.6048 20.2589L87.9059 20.7037L86.7727 21.3817C85.094 22.3562 83.1215 22.907 81.1489 22.9493C80.2046 22.9705 79.4282 23.0553 79.4282 23.1188C79.4282 23.3307 81.9883 24.517 83.4782 24.9831C87.9478 26.3601 93.2569 25.7669 97.2439 23.4154C100.077 21.7418 102.91 18.4158 104.232 15.1957C104.945 13.4797 105.659 10.3443 105.659 8.84017C105.659 7.86566 105.722 7.73855 106.897 6.57338C107.589 5.89546 108.24 5.15399 108.366 4.94214C108.575 4.53963 108.554 4.53963 107.484 4.89977C105.701 5.53532 105.449 5.45058 106.33 4.49726C106.981 3.81934 107.757 2.59061 107.757 2.23047C107.757 2.16691 107.442 2.27284 107.085 2.4635C106.708 2.67535 105.868 2.99313 105.239 3.18379L104.106 3.54394L103.077 2.84483C102.511 2.4635 101.714 2.0398 101.294 1.91269C100.224 1.61611 98.5869 1.65847 97.6216 1.99743C94.9986 2.95076 93.3408 5.40821 93.5297 8.0987Z" fill="white"/>
<path fill-rule="evenodd" clip-rule="evenodd" d="M27.9997 27.9999C27.9997 12.5609 15.4389 0 0.00012207 0V5.33297C12.4989 5.33297 22.6668 15.5009 22.6668 27.9999H27.9997ZM0.000366211 24C0.000366211 26.209 1.79134 28 4.0003 28C6.20927 28 8.00024 26.209 8.00024 24C8.00024 21.791 6.20927 20 4.0003 20C1.79134 20 0.000366211 21.791 0.000366211 24ZM0 9.33325C10.2928 9.33325 18.6667 17.7072 18.6667 28.0002H13.3338C13.3338 20.6482 7.35188 14.6672 0 14.6672V9.33325Z" fill="white"/>
</svg>
